%FSLAX45Y45*%
G04 Gerber Fmt 4.5, Leading zero omitted, Abs format (unit mm)*
G04 Created by KiCad (PCBNEW no-vcs-found) date Fri Oct  6 12:40:16 2017*
%MOMM*%
%LPD*%
G01*
G04 APERTURE LIST*
%ADD10C,0.150000*%
%ADD11C,0.200000*%
%ADD12C,0.300000*%
G04 APERTURE END LIST*
D10*
X15000000Y-14000000D02*
X15000000Y-10000000D01*
X10000000Y-14000000D02*
X15000000Y-14000000D01*
X10000000Y-10000000D02*
X10000000Y-14000000D01*
X10000000Y-10000000D02*
X15000000Y-10000000D01*
D11*
D12*
X10278928Y-14473214D02*
X10278928Y-14173214D01*
X10350357Y-14173214D01*
X10393214Y-14187500D01*
X10421786Y-14216071D01*
X10436071Y-14244643D01*
X10450357Y-14301786D01*
X10450357Y-14344643D01*
X10436071Y-14401786D01*
X10421786Y-14430357D01*
X10393214Y-14458929D01*
X10350357Y-14473214D01*
X10278928Y-14473214D01*
X10578928Y-14473214D02*
X10578928Y-14273214D01*
X10578928Y-14330357D02*
X10593214Y-14301786D01*
X10607500Y-14287500D01*
X10636071Y-14273214D01*
X10664643Y-14273214D01*
X10764643Y-14473214D02*
X10764643Y-14273214D01*
X10764643Y-14173214D02*
X10750357Y-14187500D01*
X10764643Y-14201786D01*
X10778928Y-14187500D01*
X10764643Y-14173214D01*
X10764643Y-14201786D01*
X10950357Y-14473214D02*
X10921786Y-14458929D01*
X10907500Y-14430357D01*
X10907500Y-14173214D01*
X11107500Y-14473214D02*
X11078928Y-14458929D01*
X11064643Y-14430357D01*
X11064643Y-14173214D01*
X11450357Y-14473214D02*
X11450357Y-14173214D01*
X11550357Y-14387500D01*
X11650357Y-14173214D01*
X11650357Y-14473214D01*
X11921786Y-14473214D02*
X11921786Y-14316071D01*
X11907500Y-14287500D01*
X11878928Y-14273214D01*
X11821786Y-14273214D01*
X11793214Y-14287500D01*
X11921786Y-14458929D02*
X11893214Y-14473214D01*
X11821786Y-14473214D01*
X11793214Y-14458929D01*
X11778928Y-14430357D01*
X11778928Y-14401786D01*
X11793214Y-14373214D01*
X11821786Y-14358929D01*
X11893214Y-14358929D01*
X11921786Y-14344643D01*
X12064643Y-14273214D02*
X12064643Y-14573214D01*
X12064643Y-14287500D02*
X12093214Y-14273214D01*
X12150357Y-14273214D01*
X12178928Y-14287500D01*
X12193214Y-14301786D01*
X12207500Y-14330357D01*
X12207500Y-14416071D01*
X12193214Y-14444643D01*
X12178928Y-14458929D01*
X12150357Y-14473214D01*
X12093214Y-14473214D01*
X12064643Y-14458929D01*
X12336071Y-14444643D02*
X12350357Y-14458929D01*
X12336071Y-14473214D01*
X12321786Y-14458929D01*
X12336071Y-14444643D01*
X12336071Y-14473214D01*
X12336071Y-14287500D02*
X12350357Y-14301786D01*
X12336071Y-14316071D01*
X12321786Y-14301786D01*
X12336071Y-14287500D01*
X12336071Y-14316071D01*
M02*
