%TF.GenerationSoftware,KiCad,Pcbnew,no-vcs-found*%
%TF.CreationDate,2017-10-06T12:39:31+10:30*%
%TF.ProjectId,antispark-pcb,616E7469737061726B2D7063622E6B69,1.0*%
%TF.SameCoordinates,Original*%
%TF.FileFunction,Copper,L1,Top,Signal*%
%TF.FilePolarity,Positive*%
%FSLAX46Y46*%
G04 Gerber Fmt 4.6, Leading zero omitted, Abs format (unit mm)*
G04 Created by KiCad (PCBNEW no-vcs-found) date Fri Oct  6 12:39:31 2017*
%MOMM*%
%LPD*%
G01*
G04 APERTURE LIST*
%TA.AperFunction,SMDPad,CuDef*%
%ADD10R,1.160000X1.820000*%
%TD*%
%TA.AperFunction,SMDPad,CuDef*%
%ADD11R,1.840000X2.220000*%
%TD*%
%TA.AperFunction,SMDPad,CuDef*%
%ADD12R,8.000000X5.000000*%
%TD*%
%TA.AperFunction,SMDPad,CuDef*%
%ADD13R,1.700000X0.600000*%
%TD*%
%TA.AperFunction,SMDPad,CuDef*%
%ADD14R,2.700000X1.000000*%
%TD*%
%TA.AperFunction,SMDPad,CuDef*%
%ADD15R,1.699260X1.099820*%
%TD*%
%TA.AperFunction,SMDPad,CuDef*%
%ADD16R,0.850900X1.099820*%
%TD*%
%TA.AperFunction,SMDPad,CuDef*%
%ADD17R,1.300480X0.701040*%
%TD*%
%TA.AperFunction,SMDPad,CuDef*%
%ADD18R,0.850000X0.980000*%
%TD*%
%TA.AperFunction,SMDPad,CuDef*%
%ADD19R,0.980000X0.850000*%
%TD*%
%TA.AperFunction,ViaPad*%
%ADD20C,0.800000*%
%TD*%
%TA.AperFunction,Conductor*%
%ADD21C,0.350000*%
%TD*%
%TA.AperFunction,Conductor*%
%ADD22C,0.400000*%
%TD*%
%TA.AperFunction,Conductor*%
%ADD23C,0.300000*%
%TD*%
%TA.AperFunction,Conductor*%
%ADD24C,0.250000*%
%TD*%
%TA.AperFunction,Conductor*%
%ADD25C,0.800000*%
%TD*%
%TA.AperFunction,Conductor*%
%ADD26C,0.500000*%
%TD*%
G04 APERTURE END LIST*
D10*
%TO.P,C1,1*%
%TO.N,GNDPWR*%
X101600000Y-124400000D03*
%TO.P,C1,2*%
%TO.N,Net-(C1-Pad2)*%
X104550000Y-124400000D03*
%TD*%
D11*
%TO.P,D1,C*%
%TO.N,GATE*%
X106085000Y-128600000D03*
%TO.P,D1,A*%
%TO.N,SW_OFF*%
X101915000Y-128600000D03*
%TD*%
D12*
%TO.P,P1,1*%
%TO.N,+BATT*%
X105000000Y-104000000D03*
%TD*%
%TO.P,P2,1*%
%TO.N,SW_OFF*%
X105000000Y-136000000D03*
%TD*%
D13*
%TO.P,P3,1*%
%TO.N,SW_ON*%
X105000000Y-113475000D03*
%TO.P,P3,2*%
%TO.N,GATE*%
X105000000Y-114725000D03*
%TO.P,P3,3*%
%TO.N,SW_OFF*%
X105000000Y-115975000D03*
%TO.P,P3,4*%
%TO.N,Net-(P3-Pad4)*%
X105000000Y-117225000D03*
%TO.P,P3,5*%
%TO.N,Net-(P3-Pad5)*%
X105000000Y-118475000D03*
%TO.P,P3,6*%
%TO.N,Net-(P3-Pad6)*%
X105000000Y-119725000D03*
D14*
%TO.P,P3,0*%
%TO.N,N/C*%
X101700000Y-111600000D03*
X101750000Y-121600000D03*
%TD*%
D12*
%TO.P,P4,1*%
%TO.N,+BATT*%
X145000000Y-104000000D03*
%TD*%
%TO.P,P5,1*%
%TO.N,GNDPWR*%
X145000000Y-136000000D03*
%TD*%
D15*
%TO.P,Q1,D*%
%TO.N,GNDPWR*%
X117200000Y-110500780D03*
X121599280Y-110500780D03*
X119399640Y-110500780D03*
X121599280Y-119500000D03*
X117200000Y-119500000D03*
X119399640Y-119500000D03*
D16*
%TO.P,Q1,S*%
%TO.N,SW_OFF*%
X121129380Y-113048400D03*
X121129380Y-115850020D03*
X117669900Y-113048400D03*
X117669900Y-115850020D03*
X118820520Y-113048400D03*
X119978760Y-113048400D03*
X119978760Y-115850020D03*
X118820520Y-115850020D03*
D17*
%TO.P,Q1,G*%
%TO.N,GATE*%
X119399640Y-117249560D03*
%TD*%
D15*
%TO.P,Q2,D*%
%TO.N,GNDPWR*%
X125200360Y-110501660D03*
X129599640Y-110501660D03*
X127400000Y-110501660D03*
X129599640Y-119500880D03*
X125200360Y-119500880D03*
X127400000Y-119500880D03*
D16*
%TO.P,Q2,S*%
%TO.N,SW_OFF*%
X129129740Y-113049280D03*
X129129740Y-115850900D03*
X125670260Y-113049280D03*
X125670260Y-115850900D03*
X126820880Y-113049280D03*
X127979120Y-113049280D03*
X127979120Y-115850900D03*
X126820880Y-115850900D03*
D17*
%TO.P,Q2,G*%
%TO.N,GATE*%
X127400000Y-117250440D03*
%TD*%
D15*
%TO.P,Q3,D*%
%TO.N,GNDPWR*%
X133200360Y-110501660D03*
X137599640Y-110501660D03*
X135400000Y-110501660D03*
X137599640Y-119500880D03*
X133200360Y-119500880D03*
X135400000Y-119500880D03*
D16*
%TO.P,Q3,S*%
%TO.N,SW_OFF*%
X137129740Y-113049280D03*
X137129740Y-115850900D03*
X133670260Y-113049280D03*
X133670260Y-115850900D03*
X134820880Y-113049280D03*
X135979120Y-113049280D03*
X135979120Y-115850900D03*
X134820880Y-115850900D03*
D17*
%TO.P,Q3,G*%
%TO.N,GATE*%
X135400000Y-117250440D03*
%TD*%
%TO.P,Q4,G*%
%TO.N,GATE*%
X119400000Y-126749560D03*
D16*
%TO.P,Q4,S*%
%TO.N,SW_OFF*%
X119979120Y-128149100D03*
X118820880Y-128149100D03*
X118820880Y-130950720D03*
X119979120Y-130950720D03*
X121129740Y-128149100D03*
X121129740Y-130950720D03*
X117670260Y-128149100D03*
X117670260Y-130950720D03*
D15*
%TO.P,Q4,D*%
%TO.N,GNDPWR*%
X119400000Y-124499120D03*
X121599640Y-124499120D03*
X117200360Y-124499120D03*
X119400000Y-133498340D03*
X117200360Y-133498340D03*
X121599640Y-133498340D03*
%TD*%
D17*
%TO.P,Q5,G*%
%TO.N,GATE*%
X127400000Y-126749560D03*
D16*
%TO.P,Q5,S*%
%TO.N,SW_OFF*%
X127979120Y-128149100D03*
X126820880Y-128149100D03*
X126820880Y-130950720D03*
X127979120Y-130950720D03*
X129129740Y-128149100D03*
X129129740Y-130950720D03*
X125670260Y-128149100D03*
X125670260Y-130950720D03*
D15*
%TO.P,Q5,D*%
%TO.N,GNDPWR*%
X127400000Y-124499120D03*
X129599640Y-124499120D03*
X125200360Y-124499120D03*
X127400000Y-133498340D03*
X125200360Y-133498340D03*
X129599640Y-133498340D03*
%TD*%
D17*
%TO.P,Q6,G*%
%TO.N,GATE*%
X135400000Y-126749560D03*
D16*
%TO.P,Q6,S*%
%TO.N,SW_OFF*%
X135979120Y-128149100D03*
X134820880Y-128149100D03*
X134820880Y-130950720D03*
X135979120Y-130950720D03*
X137129740Y-128149100D03*
X137129740Y-130950720D03*
X133670260Y-128149100D03*
X133670260Y-130950720D03*
D15*
%TO.P,Q6,D*%
%TO.N,GNDPWR*%
X135400000Y-124499120D03*
X137599640Y-124499120D03*
X133200360Y-124499120D03*
X135400000Y-133498340D03*
X133200360Y-133498340D03*
X137599640Y-133498340D03*
%TD*%
D18*
%TO.P,R1,1*%
%TO.N,+BATT*%
X103425000Y-109800000D03*
%TO.P,R1,2*%
%TO.N,SW_ON*%
X104975000Y-109800000D03*
%TD*%
D19*
%TO.P,R2,2*%
%TO.N,GATE*%
X106600000Y-123625000D03*
%TO.P,R2,1*%
%TO.N,Net-(C1-Pad2)*%
X106600000Y-125175000D03*
%TD*%
D20*
%TO.N,GNDPWR*%
X103000000Y-124400000D03*
X115000000Y-118900000D03*
X133200000Y-121000000D03*
X137600000Y-123000000D03*
X137600000Y-122000000D03*
X137600000Y-121000000D03*
X133200000Y-123000000D03*
X133200000Y-122000000D03*
X129600000Y-123000000D03*
X125200000Y-121000000D03*
X125200000Y-122000000D03*
X129600000Y-121000000D03*
X125200000Y-123000000D03*
X129600000Y-122000000D03*
X117200000Y-123000000D03*
X117200000Y-121000000D03*
X117200000Y-122000000D03*
X121600000Y-122000000D03*
X121600000Y-121000000D03*
X121600000Y-123000000D03*
X148400000Y-133000000D03*
X147400000Y-133000000D03*
X146400000Y-133000000D03*
X145400000Y-133000000D03*
X144400000Y-133000000D03*
X143400000Y-133000000D03*
X142400000Y-133000000D03*
X141400000Y-133000000D03*
X148400000Y-139000000D03*
X147400000Y-139000000D03*
X146400000Y-139000000D03*
X145400000Y-139000000D03*
X144400000Y-139000000D03*
X143400000Y-139000000D03*
X142400000Y-139000000D03*
X141400000Y-139000000D03*
%TO.N,GATE*%
X106600000Y-121800000D03*
X104400000Y-128600000D03*
X133600000Y-126600000D03*
X125600000Y-126600000D03*
X117600000Y-126600000D03*
X133600000Y-117400000D03*
X125600000Y-117400000D03*
X117600000Y-117400000D03*
%TO.N,+BATT*%
X103400000Y-107000000D03*
X143400000Y-107000000D03*
X148400000Y-107000000D03*
X141400000Y-107000000D03*
X141400000Y-101000000D03*
X146400000Y-101000000D03*
X143400000Y-101000000D03*
X148400000Y-101000000D03*
X142400000Y-101000000D03*
X145400000Y-101000000D03*
X142400000Y-107000000D03*
X145400000Y-107000000D03*
X147400000Y-107000000D03*
X147400000Y-101000000D03*
X146400000Y-107000000D03*
X144400000Y-101000000D03*
X144400000Y-107000000D03*
X108400000Y-107000000D03*
X107400000Y-107000000D03*
X106400000Y-107000000D03*
X105400000Y-107000000D03*
X104400000Y-107000000D03*
X102400000Y-107000000D03*
X101400000Y-107000000D03*
X108400000Y-101000000D03*
X107400000Y-101000000D03*
X106400000Y-101000000D03*
X105400000Y-101000000D03*
X104400000Y-101000000D03*
X103400000Y-101000000D03*
X102400000Y-101000000D03*
X101400000Y-101000000D03*
%TO.N,SW_OFF*%
X137100000Y-114400000D03*
X136000000Y-114400000D03*
X134800000Y-114400000D03*
X133600000Y-114400000D03*
X129200000Y-114400000D03*
X128000000Y-114400000D03*
X126800000Y-114400000D03*
X125600000Y-114400000D03*
X121200000Y-114400000D03*
X120000000Y-114400000D03*
X118800000Y-114400000D03*
X117600000Y-114400000D03*
X137200000Y-129500000D03*
X136000000Y-129500000D03*
X134900000Y-129500000D03*
X133700000Y-129500000D03*
X129100000Y-129500000D03*
X128000000Y-129500000D03*
X126800000Y-129500000D03*
X125600000Y-129500000D03*
X121200000Y-129500000D03*
X120000000Y-129500000D03*
X118800000Y-129500000D03*
X117600000Y-129500000D03*
X108400000Y-133000000D03*
X107400000Y-133000000D03*
X106400000Y-133000000D03*
X105400000Y-133000000D03*
X104400000Y-133000000D03*
X103400000Y-133000000D03*
X102400000Y-133000000D03*
X101400000Y-133000000D03*
X108400000Y-139000000D03*
X107400000Y-139000000D03*
X106400000Y-139000000D03*
X105400000Y-139000000D03*
X104400000Y-139000000D03*
X103400000Y-139000000D03*
X102400000Y-139000000D03*
X101400000Y-139000000D03*
%TD*%
D21*
%TO.N,GNDPWR*%
X101600000Y-124400000D02*
X103000000Y-124400000D01*
D22*
X117200000Y-119500000D02*
X115600000Y-119500000D01*
X115600000Y-119500000D02*
X115000000Y-118900000D01*
D23*
%TO.N,Net-(C1-Pad2)*%
X106600000Y-125175000D02*
X105025000Y-125175000D01*
D24*
X105025000Y-125175000D02*
X105000000Y-125200000D01*
D23*
X105000000Y-125200000D02*
X105000000Y-124850000D01*
X105000000Y-124850000D02*
X104550000Y-124400000D01*
D24*
%TO.N,GATE*%
X106600000Y-121800000D02*
X104800000Y-121800000D01*
X104800000Y-121800000D02*
X103200000Y-120200000D01*
X106600000Y-123625000D02*
X106600000Y-121800000D01*
D25*
X106085000Y-128600000D02*
X104400000Y-128600000D01*
D24*
X106600000Y-123625000D02*
X106600000Y-123600000D01*
D23*
X103200000Y-120200000D02*
X103200000Y-115200000D01*
X103200000Y-115200000D02*
X103675000Y-114725000D01*
X103675000Y-114725000D02*
X105000000Y-114725000D01*
D26*
X135400000Y-126749560D02*
X133749560Y-126749560D01*
X133749560Y-126749560D02*
X133600000Y-126600000D01*
X127400000Y-126749560D02*
X125749560Y-126749560D01*
X125749560Y-126749560D02*
X125600000Y-126600000D01*
X119400000Y-126749560D02*
X117749560Y-126749560D01*
X117749560Y-126749560D02*
X117600000Y-126600000D01*
X135400000Y-117250440D02*
X133749560Y-117250440D01*
X133749560Y-117250440D02*
X133600000Y-117400000D01*
X127400000Y-117250440D02*
X125749560Y-117250440D01*
X125749560Y-117250440D02*
X125600000Y-117400000D01*
X119400000Y-117250440D02*
X117749560Y-117250440D01*
X117749560Y-117250440D02*
X117600000Y-117400000D01*
D24*
%TO.N,+BATT*%
X103425000Y-109800000D02*
X103425000Y-107025000D01*
X103425000Y-107025000D02*
X103400000Y-107000000D01*
X103425000Y-105575000D02*
X105000000Y-104000000D01*
%TO.N,SW_ON*%
X104975000Y-109800000D02*
X104975000Y-113450000D01*
X104975000Y-113450000D02*
X105000000Y-113475000D01*
X104975000Y-113650000D02*
X105000000Y-113675000D01*
%TO.N,SW_OFF*%
X105000000Y-115975000D02*
X105575000Y-115975000D01*
X116200000Y-116000000D02*
X116349100Y-115850900D01*
X105575000Y-115975000D02*
X105600000Y-116000000D01*
X105600000Y-116000000D02*
X116200000Y-116000000D01*
X116349100Y-115850900D02*
X117670260Y-115850900D01*
D22*
X101915000Y-128600000D02*
X101915000Y-132915000D01*
%TD*%
D26*
%TO.N,+BATT*%
G36*
X149075000Y-107750000D02*
X100925000Y-107750000D01*
X100925000Y-100925000D01*
X149075000Y-100925000D01*
X149075000Y-107750000D01*
X149075000Y-107750000D01*
G37*
X149075000Y-107750000D02*
X100925000Y-107750000D01*
X100925000Y-100925000D01*
X149075000Y-100925000D01*
X149075000Y-107750000D01*
%TO.N,GNDPWR*%
G36*
X149075000Y-139075000D02*
X116450000Y-139075000D01*
X116450000Y-132850000D01*
X138800000Y-132850000D01*
X139125281Y-132785298D01*
X139401041Y-132601041D01*
X139585298Y-132325281D01*
X139650000Y-132000000D01*
X139650000Y-126000000D01*
X139585298Y-125674719D01*
X139401041Y-125398959D01*
X139125281Y-125214702D01*
X138800000Y-125150000D01*
X116450000Y-125150000D01*
X116450000Y-118850000D01*
X138800000Y-118850000D01*
X139125281Y-118785298D01*
X139401041Y-118601041D01*
X139585298Y-118325281D01*
X139650000Y-118000000D01*
X139650000Y-112000000D01*
X139585298Y-111674719D01*
X139401041Y-111398959D01*
X139125281Y-111214702D01*
X138800000Y-111150000D01*
X116450000Y-111150000D01*
X116450000Y-108850000D01*
X149075000Y-108850000D01*
X149075000Y-139075000D01*
X149075000Y-139075000D01*
G37*
X149075000Y-139075000D02*
X116450000Y-139075000D01*
X116450000Y-132850000D01*
X138800000Y-132850000D01*
X139125281Y-132785298D01*
X139401041Y-132601041D01*
X139585298Y-132325281D01*
X139650000Y-132000000D01*
X139650000Y-126000000D01*
X139585298Y-125674719D01*
X139401041Y-125398959D01*
X139125281Y-125214702D01*
X138800000Y-125150000D01*
X116450000Y-125150000D01*
X116450000Y-118850000D01*
X138800000Y-118850000D01*
X139125281Y-118785298D01*
X139401041Y-118601041D01*
X139585298Y-118325281D01*
X139650000Y-118000000D01*
X139650000Y-112000000D01*
X139585298Y-111674719D01*
X139401041Y-111398959D01*
X139125281Y-111214702D01*
X138800000Y-111150000D01*
X116450000Y-111150000D01*
X116450000Y-108850000D01*
X149075000Y-108850000D01*
X149075000Y-139075000D01*
%TO.N,SW_OFF*%
G36*
X115350000Y-112000000D02*
X115369030Y-112095671D01*
X115423223Y-112176777D01*
X115504329Y-112230970D01*
X115600000Y-112250000D01*
X138550000Y-112250000D01*
X138550000Y-117750000D01*
X136887246Y-117750000D01*
X136916892Y-117600960D01*
X136916892Y-116899920D01*
X136850922Y-116568267D01*
X136663056Y-116287104D01*
X136381893Y-116099238D01*
X136050240Y-116033268D01*
X134749760Y-116033268D01*
X134418107Y-116099238D01*
X134341477Y-116150440D01*
X133850268Y-116150440D01*
X133849731Y-116150217D01*
X133352450Y-116149783D01*
X132892857Y-116339684D01*
X132540919Y-116691007D01*
X132350217Y-117150269D01*
X132349783Y-117647550D01*
X132392115Y-117750000D01*
X128887246Y-117750000D01*
X128916892Y-117600960D01*
X128916892Y-116899920D01*
X128850922Y-116568267D01*
X128663056Y-116287104D01*
X128381893Y-116099238D01*
X128050240Y-116033268D01*
X126749760Y-116033268D01*
X126418107Y-116099238D01*
X126341477Y-116150440D01*
X125850268Y-116150440D01*
X125849731Y-116150217D01*
X125352450Y-116149783D01*
X124892857Y-116339684D01*
X124540919Y-116691007D01*
X124350217Y-117150269D01*
X124349783Y-117647550D01*
X124392115Y-117750000D01*
X120886711Y-117750000D01*
X120916532Y-117600080D01*
X120916532Y-116899040D01*
X120850562Y-116567387D01*
X120662696Y-116286224D01*
X120381533Y-116098358D01*
X120049880Y-116032388D01*
X118749400Y-116032388D01*
X118417747Y-116098358D01*
X118339800Y-116150440D01*
X117850268Y-116150440D01*
X117849731Y-116150217D01*
X117352450Y-116149783D01*
X116892857Y-116339684D01*
X116540919Y-116691007D01*
X116350217Y-117150269D01*
X116349783Y-117647550D01*
X116392115Y-117750000D01*
X115600000Y-117750000D01*
X115525651Y-117764789D01*
X115249731Y-117650217D01*
X114752450Y-117649783D01*
X114292857Y-117839684D01*
X113940919Y-118191007D01*
X113750217Y-118650269D01*
X113749783Y-119147550D01*
X113939684Y-119607143D01*
X114291007Y-119959081D01*
X114750269Y-120149783D01*
X114764872Y-120149796D01*
X114857538Y-120242462D01*
X115198182Y-120470074D01*
X115350000Y-120500272D01*
X115350000Y-126000000D01*
X115369030Y-126095671D01*
X115423223Y-126176777D01*
X115504329Y-126230970D01*
X115600000Y-126250000D01*
X116391852Y-126250000D01*
X116350217Y-126350269D01*
X116349783Y-126847550D01*
X116539684Y-127307143D01*
X116891007Y-127659081D01*
X117350269Y-127849783D01*
X117847550Y-127850217D01*
X117849140Y-127849560D01*
X118341477Y-127849560D01*
X118418107Y-127900762D01*
X118749760Y-127966732D01*
X120050240Y-127966732D01*
X120381893Y-127900762D01*
X120663056Y-127712896D01*
X120850922Y-127431733D01*
X120916892Y-127100080D01*
X120916892Y-126399040D01*
X120887246Y-126250000D01*
X124391852Y-126250000D01*
X124350217Y-126350269D01*
X124349783Y-126847550D01*
X124539684Y-127307143D01*
X124891007Y-127659081D01*
X125350269Y-127849783D01*
X125847550Y-127850217D01*
X125849140Y-127849560D01*
X126341477Y-127849560D01*
X126418107Y-127900762D01*
X126749760Y-127966732D01*
X128050240Y-127966732D01*
X128381893Y-127900762D01*
X128663056Y-127712896D01*
X128850922Y-127431733D01*
X128916892Y-127100080D01*
X128916892Y-126399040D01*
X128887246Y-126250000D01*
X132391852Y-126250000D01*
X132350217Y-126350269D01*
X132349783Y-126847550D01*
X132539684Y-127307143D01*
X132891007Y-127659081D01*
X133350269Y-127849783D01*
X133847550Y-127850217D01*
X133849140Y-127849560D01*
X134341477Y-127849560D01*
X134418107Y-127900762D01*
X134749760Y-127966732D01*
X136050240Y-127966732D01*
X136381893Y-127900762D01*
X136663056Y-127712896D01*
X136850922Y-127431733D01*
X136916892Y-127100080D01*
X136916892Y-126399040D01*
X136887246Y-126250000D01*
X138550000Y-126250000D01*
X138550000Y-131750000D01*
X115600000Y-131750000D01*
X115504329Y-131769030D01*
X115423223Y-131823223D01*
X115369030Y-131904329D01*
X115350000Y-132000000D01*
X115350000Y-139075000D01*
X100925000Y-139075000D01*
X100925000Y-131050000D01*
X107800000Y-131050000D01*
X107895671Y-131030970D01*
X107976777Y-130976777D01*
X108030970Y-130895671D01*
X108050000Y-130800000D01*
X108050000Y-108850000D01*
X115350000Y-108850000D01*
X115350000Y-112000000D01*
X115350000Y-112000000D01*
G37*
X115350000Y-112000000D02*
X115369030Y-112095671D01*
X115423223Y-112176777D01*
X115504329Y-112230970D01*
X115600000Y-112250000D01*
X138550000Y-112250000D01*
X138550000Y-117750000D01*
X136887246Y-117750000D01*
X136916892Y-117600960D01*
X136916892Y-116899920D01*
X136850922Y-116568267D01*
X136663056Y-116287104D01*
X136381893Y-116099238D01*
X136050240Y-116033268D01*
X134749760Y-116033268D01*
X134418107Y-116099238D01*
X134341477Y-116150440D01*
X133850268Y-116150440D01*
X133849731Y-116150217D01*
X133352450Y-116149783D01*
X132892857Y-116339684D01*
X132540919Y-116691007D01*
X132350217Y-117150269D01*
X132349783Y-117647550D01*
X132392115Y-117750000D01*
X128887246Y-117750000D01*
X128916892Y-117600960D01*
X128916892Y-116899920D01*
X128850922Y-116568267D01*
X128663056Y-116287104D01*
X128381893Y-116099238D01*
X128050240Y-116033268D01*
X126749760Y-116033268D01*
X126418107Y-116099238D01*
X126341477Y-116150440D01*
X125850268Y-116150440D01*
X125849731Y-116150217D01*
X125352450Y-116149783D01*
X124892857Y-116339684D01*
X124540919Y-116691007D01*
X124350217Y-117150269D01*
X124349783Y-117647550D01*
X124392115Y-117750000D01*
X120886711Y-117750000D01*
X120916532Y-117600080D01*
X120916532Y-116899040D01*
X120850562Y-116567387D01*
X120662696Y-116286224D01*
X120381533Y-116098358D01*
X120049880Y-116032388D01*
X118749400Y-116032388D01*
X118417747Y-116098358D01*
X118339800Y-116150440D01*
X117850268Y-116150440D01*
X117849731Y-116150217D01*
X117352450Y-116149783D01*
X116892857Y-116339684D01*
X116540919Y-116691007D01*
X116350217Y-117150269D01*
X116349783Y-117647550D01*
X116392115Y-117750000D01*
X115600000Y-117750000D01*
X115525651Y-117764789D01*
X115249731Y-117650217D01*
X114752450Y-117649783D01*
X114292857Y-117839684D01*
X113940919Y-118191007D01*
X113750217Y-118650269D01*
X113749783Y-119147550D01*
X113939684Y-119607143D01*
X114291007Y-119959081D01*
X114750269Y-120149783D01*
X114764872Y-120149796D01*
X114857538Y-120242462D01*
X115198182Y-120470074D01*
X115350000Y-120500272D01*
X115350000Y-126000000D01*
X115369030Y-126095671D01*
X115423223Y-126176777D01*
X115504329Y-126230970D01*
X115600000Y-126250000D01*
X116391852Y-126250000D01*
X116350217Y-126350269D01*
X116349783Y-126847550D01*
X116539684Y-127307143D01*
X116891007Y-127659081D01*
X117350269Y-127849783D01*
X117847550Y-127850217D01*
X117849140Y-127849560D01*
X118341477Y-127849560D01*
X118418107Y-127900762D01*
X118749760Y-127966732D01*
X120050240Y-127966732D01*
X120381893Y-127900762D01*
X120663056Y-127712896D01*
X120850922Y-127431733D01*
X120916892Y-127100080D01*
X120916892Y-126399040D01*
X120887246Y-126250000D01*
X124391852Y-126250000D01*
X124350217Y-126350269D01*
X124349783Y-126847550D01*
X124539684Y-127307143D01*
X124891007Y-127659081D01*
X125350269Y-127849783D01*
X125847550Y-127850217D01*
X125849140Y-127849560D01*
X126341477Y-127849560D01*
X126418107Y-127900762D01*
X126749760Y-127966732D01*
X128050240Y-127966732D01*
X128381893Y-127900762D01*
X128663056Y-127712896D01*
X128850922Y-127431733D01*
X128916892Y-127100080D01*
X128916892Y-126399040D01*
X128887246Y-126250000D01*
X132391852Y-126250000D01*
X132350217Y-126350269D01*
X132349783Y-126847550D01*
X132539684Y-127307143D01*
X132891007Y-127659081D01*
X133350269Y-127849783D01*
X133847550Y-127850217D01*
X133849140Y-127849560D01*
X134341477Y-127849560D01*
X134418107Y-127900762D01*
X134749760Y-127966732D01*
X136050240Y-127966732D01*
X136381893Y-127900762D01*
X136663056Y-127712896D01*
X136850922Y-127431733D01*
X136916892Y-127100080D01*
X136916892Y-126399040D01*
X136887246Y-126250000D01*
X138550000Y-126250000D01*
X138550000Y-131750000D01*
X115600000Y-131750000D01*
X115504329Y-131769030D01*
X115423223Y-131823223D01*
X115369030Y-131904329D01*
X115350000Y-132000000D01*
X115350000Y-139075000D01*
X100925000Y-139075000D01*
X100925000Y-131050000D01*
X107800000Y-131050000D01*
X107895671Y-131030970D01*
X107976777Y-130976777D01*
X108030970Y-130895671D01*
X108050000Y-130800000D01*
X108050000Y-108850000D01*
X115350000Y-108850000D01*
X115350000Y-112000000D01*
%TD*%
M02*
