M48
;DRILL file {KiCad no-vcs-found} date Fri Oct  6 12:40:11 2017
;FORMAT={-:-/ absolute / metric / decimal}
FMAT,2
METRIC,TZ
T1C0.400
%
G90
G05
M71
T1
X101.4Y-101.
X101.4Y-107.
X101.4Y-133.
X101.4Y-139.
X102.4Y-101.
X102.4Y-107.
X102.4Y-133.
X102.4Y-139.
X103.Y-124.4
X103.4Y-101.
X103.4Y-107.
X103.4Y-133.
X103.4Y-139.
X104.4Y-101.
X104.4Y-107.
X104.4Y-128.6
X104.4Y-133.
X104.4Y-139.
X105.4Y-101.
X105.4Y-107.
X105.4Y-133.
X105.4Y-139.
X106.4Y-101.
X106.4Y-107.
X106.4Y-133.
X106.4Y-139.
X106.6Y-121.8
X107.4Y-101.
X107.4Y-107.
X107.4Y-133.
X107.4Y-139.
X108.4Y-101.
X108.4Y-107.
X108.4Y-133.
X108.4Y-139.
X115.Y-118.9
X117.2Y-121.
X117.2Y-122.
X117.2Y-123.
X117.6Y-114.4
X117.6Y-117.4
X117.6Y-126.6
X117.6Y-129.5
X118.8Y-114.4
X118.8Y-129.5
X120.Y-114.4
X120.Y-129.5
X121.2Y-114.4
X121.2Y-129.5
X121.6Y-121.
X121.6Y-122.
X121.6Y-123.
X125.2Y-121.
X125.2Y-122.
X125.2Y-123.
X125.6Y-114.4
X125.6Y-117.4
X125.6Y-126.6
X125.6Y-129.5
X126.8Y-114.4
X126.8Y-129.5
X128.Y-114.4
X128.Y-129.5
X129.1Y-129.5
X129.2Y-114.4
X129.6Y-121.
X129.6Y-122.
X129.6Y-123.
X133.2Y-121.
X133.2Y-122.
X133.2Y-123.
X133.6Y-114.4
X133.6Y-117.4
X133.6Y-126.6
X133.7Y-129.5
X134.8Y-114.4
X134.9Y-129.5
X136.Y-114.4
X136.Y-129.5
X137.1Y-114.4
X137.2Y-129.5
X137.6Y-121.
X137.6Y-122.
X137.6Y-123.
X141.4Y-101.
X141.4Y-107.
X141.4Y-133.
X141.4Y-139.
X142.4Y-101.
X142.4Y-107.
X142.4Y-133.
X142.4Y-139.
X143.4Y-101.
X143.4Y-107.
X143.4Y-133.
X143.4Y-139.
X144.4Y-101.
X144.4Y-107.
X144.4Y-133.
X144.4Y-139.
X145.4Y-101.
X145.4Y-107.
X145.4Y-133.
X145.4Y-139.
X146.4Y-101.
X146.4Y-107.
X146.4Y-133.
X146.4Y-139.
X147.4Y-101.
X147.4Y-107.
X147.4Y-133.
X147.4Y-139.
X148.4Y-101.
X148.4Y-107.
X148.4Y-133.
X148.4Y-139.
T0
M30
